<?xml version="1.0" encoding="utf-8"?>
<svg version="1.1" xmlns="http://www.w3.org/2000/svg" xmlns:xlink="http://www.w3.org/1999/xlink" width="1000" height="1000" viewBox="0 0 1000 1000" enable-background="new 0 0 1000 1000" xml:space="preserve"><g transform="translate(0,0) scale(1.0,1.0)"><svg width="1000" height="1000" viewBox="0 0 660 660" enable-background="new 0 0 1000 1000" xml:space="preserve"><rect x="0" y="0" width="660" height="660" fill="rgb(255,255,255)" opacity="0.0" /><circle cx="270.0" cy="90.0" r="8.333333" fill="rgb(0,0,0)" opacity="1.0" /><circle cx="290.0" cy="90.0" r="8.333333" fill="rgb(0,0,0)" opacity="1.0" /><circle cx="310.0" cy="90.0" r="8.333333" fill="rgb(0,0,0)" opacity="1.0" /><circle cx="370.0" cy="90.0" r="8.333333" fill="rgb(0,0,0)" opacity="1.0" /><circle cx="390.0" cy="90.0" r="8.333333" fill="rgb(0,0,0)" opacity="1.0" /><circle cx="410.0" cy="90.0" r="8.333333" fill="rgb(0,0,0)" opacity="1.0" /><circle cx="270.0" cy="110.0" r="8.333333" fill="rgb(0,0,0)" opacity="1.0" /><circle cx="350.0" cy="110.0" r="8.333333" fill="rgb(0,0,0)" opacity="1.0" /><circle cx="390.0" cy="110.0" r="8.333333" fill="rgb(0,0,0)" opacity="1.0" /><circle cx="250.0" cy="130.0" r="8.333333" fill="rgb(0,0,0)" opacity="1.0" /><circle cx="330.0" cy="130.0" r="8.333333" fill="rgb(0,0,0)" opacity="1.0" /><circle cx="350.0" cy="130.0" r="8.333333" fill="rgb(0,0,0)" opacity="1.0" /><circle cx="410.0" cy="130.0" r="8.333333" fill="rgb(0,0,0)" opacity="1.0" /><circle cx="250.0" cy="150.0" r="8.333333" fill="rgb(0,0,0)" opacity="1.0" /><circle cx="310.0" cy="150.0" r="8.333333" fill="rgb(0,0,0)" opacity="1.0" /><circle cx="350.0" cy="150.0" r="8.333333" fill="rgb(0,0,0)" opacity="1.0" /><circle cx="370.0" cy="150.0" r="8.333333" fill="rgb(0,0,0)" opacity="1.0" /><circle cx="390.0" cy="150.0" r="8.333333" fill="rgb(0,0,0)" opacity="1.0" /><circle cx="410.0" cy="150.0" r="8.333333" fill="rgb(0,0,0)" opacity="1.0" /><circle cx="250.0" cy="170.0" r="8.333333" fill="rgb(0,0,0)" opacity="1.0" /><circle cx="270.0" cy="170.0" r="8.333333" fill="rgb(0,0,0)" opacity="1.0" /><circle cx="290.0" cy="170.0" r="8.333333" fill="rgb(0,0,0)" opacity="1.0" /><circle cx="330.0" cy="170.0" r="8.333333" fill="rgb(0,0,0)" opacity="1.0" /><circle cx="390.0" cy="170.0" r="8.333333" fill="rgb(0,0,0)" opacity="1.0" /><circle cx="410.0" cy="170.0" r="8.333333" fill="rgb(0,0,0)" opacity="1.0" /><circle cx="250.0" cy="190.0" r="8.333333" fill="rgb(0,0,0)" opacity="1.0" /><circle cx="290.0" cy="190.0" r="8.333333" fill="rgb(0,0,0)" opacity="1.0" /><circle cx="310.0" cy="190.0" r="8.333333" fill="rgb(0,0,0)" opacity="1.0" /><circle cx="330.0" cy="190.0" r="8.333333" fill="rgb(0,0,0)" opacity="1.0" /><circle cx="350.0" cy="190.0" r="8.333333" fill="rgb(0,0,0)" opacity="1.0" /><circle cx="370.0" cy="190.0" r="8.333333" fill="rgb(0,0,0)" opacity="1.0" /><circle cx="390.0" cy="190.0" r="8.333333" fill="rgb(0,0,0)" opacity="1.0" /><circle cx="250.0" cy="210.0" r="8.333333" fill="rgb(0,0,0)" opacity="1.0" /><circle cx="290.0" cy="210.0" r="8.333333" fill="rgb(0,0,0)" opacity="1.0" /><circle cx="330.0" cy="210.0" r="8.333333" fill="rgb(0,0,0)" opacity="1.0" /><circle cx="370.0" cy="210.0" r="8.333333" fill="rgb(0,0,0)" opacity="1.0" /><circle cx="410.0" cy="210.0" r="8.333333" fill="rgb(0,0,0)" opacity="1.0" /><circle cx="250.0" cy="230.0" r="8.333333" fill="rgb(0,0,0)" opacity="1.0" /><circle cx="290.0" cy="230.0" r="8.333333" fill="rgb(0,0,0)" opacity="1.0" /><circle cx="310.0" cy="230.0" r="8.333333" fill="rgb(0,0,0)" opacity="1.0" /><circle cx="410.0" cy="230.0" r="8.333333" fill="rgb(0,0,0)" opacity="1.0" /><circle cx="90.0" cy="250.0" r="8.333333" fill="rgb(0,0,0)" opacity="1.0" /><circle cx="130.0" cy="250.0" r="8.333333" fill="rgb(0,0,0)" opacity="1.0" /><circle cx="150.0" cy="250.0" r="8.333333" fill="rgb(0,0,0)" opacity="1.0" /><circle cx="170.0" cy="250.0" r="8.333333" fill="rgb(0,0,0)" opacity="1.0" /><circle cx="190.0" cy="250.0" r="8.333333" fill="rgb(0,0,0)" opacity="1.0" /><circle cx="210.0" cy="250.0" r="8.333333" fill="rgb(0,0,0)" opacity="1.0" /><circle cx="330.0" cy="250.0" r="8.333333" fill="rgb(0,0,0)" opacity="1.0" /><circle cx="350.0" cy="250.0" r="8.333333" fill="rgb(0,0,0)" opacity="1.0" /><circle cx="390.0" cy="250.0" r="8.333333" fill="rgb(0,0,0)" opacity="1.0" /><circle cx="450.0" cy="250.0" r="8.333333" fill="rgb(0,0,0)" opacity="1.0" /><circle cx="470.0" cy="250.0" r="8.333333" fill="rgb(0,0,0)" opacity="1.0" /><circle cx="490.0" cy="250.0" r="8.333333" fill="rgb(0,0,0)" opacity="1.0" /><circle cx="510.0" cy="250.0" r="8.333333" fill="rgb(0,0,0)" opacity="1.0" /><circle cx="530.0" cy="250.0" r="8.333333" fill="rgb(0,0,0)" opacity="1.0" /><circle cx="130.0" cy="270.0" r="8.333333" fill="rgb(0,0,0)" opacity="1.0" /><circle cx="190.0" cy="270.0" r="8.333333" fill="rgb(0,0,0)" opacity="1.0" /><circle cx="250.0" cy="270.0" r="8.333333" fill="rgb(0,0,0)" opacity="1.0" /><circle cx="270.0" cy="270.0" r="8.333333" fill="rgb(0,0,0)" opacity="1.0" /><circle cx="290.0" cy="270.0" r="8.333333" fill="rgb(0,0,0)" opacity="1.0" /><circle cx="330.0" cy="270.0" r="8.333333" fill="rgb(0,0,0)" opacity="1.0" /><circle cx="370.0" cy="270.0" r="8.333333" fill="rgb(0,0,0)" opacity="1.0" /><circle cx="390.0" cy="270.0" r="8.333333" fill="rgb(0,0,0)" opacity="1.0" /><circle cx="410.0" cy="270.0" r="8.333333" fill="rgb(0,0,0)" opacity="1.0" /><circle cx="430.0" cy="270.0" r="8.333333" fill="rgb(0,0,0)" opacity="1.0" /><circle cx="470.0" cy="270.0" r="8.333333" fill="rgb(0,0,0)" opacity="1.0" /><circle cx="490.0" cy="270.0" r="8.333333" fill="rgb(0,0,0)" opacity="1.0" /><circle cx="570.0" cy="270.0" r="8.333333" fill="rgb(0,0,0)" opacity="1.0" /><circle cx="90.0" cy="290.0" r="8.333333" fill="rgb(0,0,0)" opacity="1.0" /><circle cx="150.0" cy="290.0" r="8.333333" fill="rgb(0,0,0)" opacity="1.0" /><circle cx="210.0" cy="290.0" r="8.333333" fill="rgb(0,0,0)" opacity="1.0" /><circle cx="250.0" cy="290.0" r="8.333333" fill="rgb(0,0,0)" opacity="1.0" /><circle cx="270.0" cy="290.0" r="8.333333" fill="rgb(0,0,0)" opacity="1.0" /><circle cx="310.0" cy="290.0" r="8.333333" fill="rgb(0,0,0)" opacity="1.0" /><circle cx="330.0" cy="290.0" r="8.333333" fill="rgb(0,0,0)" opacity="1.0" /><circle cx="350.0" cy="290.0" r="8.333333" fill="rgb(0,0,0)" opacity="1.0" /><circle cx="370.0" cy="290.0" r="8.333333" fill="rgb(0,0,0)" opacity="1.0" /><circle cx="390.0" cy="290.0" r="8.333333" fill="rgb(0,0,0)" opacity="1.0" /><circle cx="410.0" cy="290.0" r="8.333333" fill="rgb(0,0,0)" opacity="1.0" /><circle cx="430.0" cy="290.0" r="8.333333" fill="rgb(0,0,0)" opacity="1.0" /><circle cx="450.0" cy="290.0" r="8.333333" fill="rgb(0,0,0)" opacity="1.0" /><circle cx="490.0" cy="290.0" r="8.333333" fill="rgb(0,0,0)" opacity="1.0" /><circle cx="530.0" cy="290.0" r="8.333333" fill="rgb(0,0,0)" opacity="1.0" /><circle cx="150.0" cy="310.0" r="8.333333" fill="rgb(0,0,0)" opacity="1.0" /><circle cx="270.0" cy="310.0" r="8.333333" fill="rgb(0,0,0)" opacity="1.0" /><circle cx="330.0" cy="310.0" r="8.333333" fill="rgb(0,0,0)" opacity="1.0" /><circle cx="350.0" cy="310.0" r="8.333333" fill="rgb(0,0,0)" opacity="1.0" /><circle cx="410.0" cy="310.0" r="8.333333" fill="rgb(0,0,0)" opacity="1.0" /><circle cx="430.0" cy="310.0" r="8.333333" fill="rgb(0,0,0)" opacity="1.0" /><circle cx="90.0" cy="330.0" r="8.333333" fill="rgb(0,0,0)" opacity="1.0" /><circle cx="110.0" cy="330.0" r="8.333333" fill="rgb(0,0,0)" opacity="1.0" /><circle cx="130.0" cy="330.0" r="8.333333" fill="rgb(0,0,0)" opacity="1.0" /><circle cx="170.0" cy="330.0" r="8.333333" fill="rgb(0,0,0)" opacity="1.0" /><circle cx="210.0" cy="330.0" r="8.333333" fill="rgb(0,0,0)" opacity="1.0" /><circle cx="230.0" cy="330.0" r="8.333333" fill="rgb(0,0,0)" opacity="1.0" /><circle cx="250.0" cy="330.0" r="8.333333" fill="rgb(0,0,0)" opacity="1.0" /><circle cx="270.0" cy="330.0" r="8.333333" fill="rgb(0,0,0)" opacity="1.0" /><circle cx="310.0" cy="330.0" r="8.333333" fill="rgb(0,0,0)" opacity="1.0" /><circle cx="330.0" cy="330.0" r="8.333333" fill="rgb(0,0,0)" opacity="1.0" /><circle cx="350.0" cy="330.0" r="8.333333" fill="rgb(0,0,0)" opacity="1.0" /><circle cx="370.0" cy="330.0" r="8.333333" fill="rgb(0,0,0)" opacity="1.0" /><circle cx="390.0" cy="330.0" r="8.333333" fill="rgb(0,0,0)" opacity="1.0" /><circle cx="450.0" cy="330.0" r="8.333333" fill="rgb(0,0,0)" opacity="1.0" /><circle cx="470.0" cy="330.0" r="8.333333" fill="rgb(0,0,0)" opacity="1.0" /><circle cx="490.0" cy="330.0" r="8.333333" fill="rgb(0,0,0)" opacity="1.0" /><circle cx="510.0" cy="330.0" r="8.333333" fill="rgb(0,0,0)" opacity="1.0" /><circle cx="550.0" cy="330.0" r="8.333333" fill="rgb(0,0,0)" opacity="1.0" /><circle cx="570.0" cy="330.0" r="8.333333" fill="rgb(0,0,0)" opacity="1.0" /><circle cx="90.0" cy="350.0" r="8.333333" fill="rgb(0,0,0)" opacity="1.0" /><circle cx="110.0" cy="350.0" r="8.333333" fill="rgb(0,0,0)" opacity="1.0" /><circle cx="130.0" cy="350.0" r="8.333333" fill="rgb(0,0,0)" opacity="1.0" /><circle cx="150.0" cy="350.0" r="8.333333" fill="rgb(0,0,0)" opacity="1.0" /><circle cx="170.0" cy="350.0" r="8.333333" fill="rgb(0,0,0)" opacity="1.0" /><circle cx="190.0" cy="350.0" r="8.333333" fill="rgb(0,0,0)" opacity="1.0" /><circle cx="230.0" cy="350.0" r="8.333333" fill="rgb(0,0,0)" opacity="1.0" /><circle cx="270.0" cy="350.0" r="8.333333" fill="rgb(0,0,0)" opacity="1.0" /><circle cx="370.0" cy="350.0" r="8.333333" fill="rgb(0,0,0)" opacity="1.0" /><circle cx="470.0" cy="350.0" r="8.333333" fill="rgb(0,0,0)" opacity="1.0" /><circle cx="490.0" cy="350.0" r="8.333333" fill="rgb(0,0,0)" opacity="1.0" /><circle cx="550.0" cy="350.0" r="8.333333" fill="rgb(0,0,0)" opacity="1.0" /><circle cx="90.0" cy="370.0" r="8.333333" fill="rgb(0,0,0)" opacity="1.0" /><circle cx="130.0" cy="370.0" r="8.333333" fill="rgb(0,0,0)" opacity="1.0" /><circle cx="150.0" cy="370.0" r="8.333333" fill="rgb(0,0,0)" opacity="1.0" /><circle cx="210.0" cy="370.0" r="8.333333" fill="rgb(0,0,0)" opacity="1.0" /><circle cx="290.0" cy="370.0" r="8.333333" fill="rgb(0,0,0)" opacity="1.0" /><circle cx="310.0" cy="370.0" r="8.333333" fill="rgb(0,0,0)" opacity="1.0" /><circle cx="330.0" cy="370.0" r="8.333333" fill="rgb(0,0,0)" opacity="1.0" /><circle cx="350.0" cy="370.0" r="8.333333" fill="rgb(0,0,0)" opacity="1.0" /><circle cx="370.0" cy="370.0" r="8.333333" fill="rgb(0,0,0)" opacity="1.0" /><circle cx="390.0" cy="370.0" r="8.333333" fill="rgb(0,0,0)" opacity="1.0" /><circle cx="410.0" cy="370.0" r="8.333333" fill="rgb(0,0,0)" opacity="1.0" /><circle cx="430.0" cy="370.0" r="8.333333" fill="rgb(0,0,0)" opacity="1.0" /><circle cx="450.0" cy="370.0" r="8.333333" fill="rgb(0,0,0)" opacity="1.0" /><circle cx="490.0" cy="370.0" r="8.333333" fill="rgb(0,0,0)" opacity="1.0" /><circle cx="530.0" cy="370.0" r="8.333333" fill="rgb(0,0,0)" opacity="1.0" /><circle cx="550.0" cy="370.0" r="8.333333" fill="rgb(0,0,0)" opacity="1.0" /><circle cx="570.0" cy="370.0" r="8.333333" fill="rgb(0,0,0)" opacity="1.0" /><circle cx="90.0" cy="390.0" r="8.333333" fill="rgb(0,0,0)" opacity="1.0" /><circle cx="130.0" cy="390.0" r="8.333333" fill="rgb(0,0,0)" opacity="1.0" /><circle cx="150.0" cy="390.0" r="8.333333" fill="rgb(0,0,0)" opacity="1.0" /><circle cx="170.0" cy="390.0" r="8.333333" fill="rgb(0,0,0)" opacity="1.0" /><circle cx="190.0" cy="390.0" r="8.333333" fill="rgb(0,0,0)" opacity="1.0" /><circle cx="270.0" cy="390.0" r="8.333333" fill="rgb(0,0,0)" opacity="1.0" /><circle cx="310.0" cy="390.0" r="8.333333" fill="rgb(0,0,0)" opacity="1.0" /><circle cx="350.0" cy="390.0" r="8.333333" fill="rgb(0,0,0)" opacity="1.0" /><circle cx="410.0" cy="390.0" r="8.333333" fill="rgb(0,0,0)" opacity="1.0" /><circle cx="550.0" cy="390.0" r="8.333333" fill="rgb(0,0,0)" opacity="1.0" /><circle cx="570.0" cy="390.0" r="8.333333" fill="rgb(0,0,0)" opacity="1.0" /><circle cx="90.0" cy="410.0" r="8.333333" fill="rgb(0,0,0)" opacity="1.0" /><circle cx="170.0" cy="410.0" r="8.333333" fill="rgb(0,0,0)" opacity="1.0" /><circle cx="190.0" cy="410.0" r="8.333333" fill="rgb(0,0,0)" opacity="1.0" /><circle cx="210.0" cy="410.0" r="8.333333" fill="rgb(0,0,0)" opacity="1.0" /><circle cx="230.0" cy="410.0" r="8.333333" fill="rgb(0,0,0)" opacity="1.0" /><circle cx="250.0" cy="410.0" r="8.333333" fill="rgb(0,0,0)" opacity="1.0" /><circle cx="310.0" cy="410.0" r="8.333333" fill="rgb(0,0,0)" opacity="1.0" /><circle cx="330.0" cy="410.0" r="8.333333" fill="rgb(0,0,0)" opacity="1.0" /><circle cx="370.0" cy="410.0" r="8.333333" fill="rgb(0,0,0)" opacity="1.0" /><circle cx="390.0" cy="410.0" r="8.333333" fill="rgb(0,0,0)" opacity="1.0" /><circle cx="410.0" cy="410.0" r="8.333333" fill="rgb(0,0,0)" opacity="1.0" /><circle cx="430.0" cy="410.0" r="8.333333" fill="rgb(0,0,0)" opacity="1.0" /><circle cx="450.0" cy="410.0" r="8.333333" fill="rgb(0,0,0)" opacity="1.0" /><circle cx="470.0" cy="410.0" r="8.333333" fill="rgb(0,0,0)" opacity="1.0" /><circle cx="490.0" cy="410.0" r="8.333333" fill="rgb(0,0,0)" opacity="1.0" /><circle cx="510.0" cy="410.0" r="8.333333" fill="rgb(0,0,0)" opacity="1.0" /><circle cx="570.0" cy="410.0" r="8.333333" fill="rgb(0,0,0)" opacity="1.0" /><circle cx="250.0" cy="430.0" r="8.333333" fill="rgb(0,0,0)" opacity="1.0" /><circle cx="330.0" cy="430.0" r="8.333333" fill="rgb(0,0,0)" opacity="1.0" /><circle cx="370.0" cy="430.0" r="8.333333" fill="rgb(0,0,0)" opacity="1.0" /><circle cx="410.0" cy="430.0" r="8.333333" fill="rgb(0,0,0)" opacity="1.0" /><circle cx="490.0" cy="430.0" r="8.333333" fill="rgb(0,0,0)" opacity="1.0" /><circle cx="570.0" cy="430.0" r="8.333333" fill="rgb(0,0,0)" opacity="1.0" /><circle cx="270.0" cy="450.0" r="8.333333" fill="rgb(0,0,0)" opacity="1.0" /><circle cx="330.0" cy="450.0" r="8.333333" fill="rgb(0,0,0)" opacity="1.0" /><circle cx="350.0" cy="450.0" r="8.333333" fill="rgb(0,0,0)" opacity="1.0" /><circle cx="410.0" cy="450.0" r="8.333333" fill="rgb(0,0,0)" opacity="1.0" /><circle cx="450.0" cy="450.0" r="8.333333" fill="rgb(0,0,0)" opacity="1.0" /><circle cx="490.0" cy="450.0" r="8.333333" fill="rgb(0,0,0)" opacity="1.0" /><circle cx="530.0" cy="450.0" r="8.333333" fill="rgb(0,0,0)" opacity="1.0" /><circle cx="550.0" cy="450.0" r="8.333333" fill="rgb(0,0,0)" opacity="1.0" /><circle cx="570.0" cy="450.0" r="8.333333" fill="rgb(0,0,0)" opacity="1.0" /><circle cx="250.0" cy="470.0" r="8.333333" fill="rgb(0,0,0)" opacity="1.0" /><circle cx="270.0" cy="470.0" r="8.333333" fill="rgb(0,0,0)" opacity="1.0" /><circle cx="330.0" cy="470.0" r="8.333333" fill="rgb(0,0,0)" opacity="1.0" /><circle cx="350.0" cy="470.0" r="8.333333" fill="rgb(0,0,0)" opacity="1.0" /><circle cx="410.0" cy="470.0" r="8.333333" fill="rgb(0,0,0)" opacity="1.0" /><circle cx="490.0" cy="470.0" r="8.333333" fill="rgb(0,0,0)" opacity="1.0" /><circle cx="510.0" cy="470.0" r="8.333333" fill="rgb(0,0,0)" opacity="1.0" /><circle cx="250.0" cy="490.0" r="8.333333" fill="rgb(0,0,0)" opacity="1.0" /><circle cx="290.0" cy="490.0" r="8.333333" fill="rgb(0,0,0)" opacity="1.0" /><circle cx="330.0" cy="490.0" r="8.333333" fill="rgb(0,0,0)" opacity="1.0" /><circle cx="350.0" cy="490.0" r="8.333333" fill="rgb(0,0,0)" opacity="1.0" /><circle cx="370.0" cy="490.0" r="8.333333" fill="rgb(0,0,0)" opacity="1.0" /><circle cx="410.0" cy="490.0" r="8.333333" fill="rgb(0,0,0)" opacity="1.0" /><circle cx="430.0" cy="490.0" r="8.333333" fill="rgb(0,0,0)" opacity="1.0" /><circle cx="450.0" cy="490.0" r="8.333333" fill="rgb(0,0,0)" opacity="1.0" /><circle cx="470.0" cy="490.0" r="8.333333" fill="rgb(0,0,0)" opacity="1.0" /><circle cx="490.0" cy="490.0" r="8.333333" fill="rgb(0,0,0)" opacity="1.0" /><circle cx="510.0" cy="490.0" r="8.333333" fill="rgb(0,0,0)" opacity="1.0" /><circle cx="250.0" cy="510.0" r="8.333333" fill="rgb(0,0,0)" opacity="1.0" /><circle cx="270.0" cy="510.0" r="8.333333" fill="rgb(0,0,0)" opacity="1.0" /><circle cx="290.0" cy="510.0" r="8.333333" fill="rgb(0,0,0)" opacity="1.0" /><circle cx="310.0" cy="510.0" r="8.333333" fill="rgb(0,0,0)" opacity="1.0" /><circle cx="370.0" cy="510.0" r="8.333333" fill="rgb(0,0,0)" opacity="1.0" /><circle cx="390.0" cy="510.0" r="8.333333" fill="rgb(0,0,0)" opacity="1.0" /><circle cx="410.0" cy="510.0" r="8.333333" fill="rgb(0,0,0)" opacity="1.0" /><circle cx="430.0" cy="510.0" r="8.333333" fill="rgb(0,0,0)" opacity="1.0" /><circle cx="450.0" cy="510.0" r="8.333333" fill="rgb(0,0,0)" opacity="1.0" /><circle cx="490.0" cy="510.0" r="8.333333" fill="rgb(0,0,0)" opacity="1.0" /><circle cx="550.0" cy="510.0" r="8.333333" fill="rgb(0,0,0)" opacity="1.0" /><circle cx="570.0" cy="510.0" r="8.333333" fill="rgb(0,0,0)" opacity="1.0" /><circle cx="250.0" cy="530.0" r="8.333333" fill="rgb(0,0,0)" opacity="1.0" /><circle cx="270.0" cy="530.0" r="8.333333" fill="rgb(0,0,0)" opacity="1.0" /><circle cx="290.0" cy="530.0" r="8.333333" fill="rgb(0,0,0)" opacity="1.0" /><circle cx="310.0" cy="530.0" r="8.333333" fill="rgb(0,0,0)" opacity="1.0" /><circle cx="330.0" cy="530.0" r="8.333333" fill="rgb(0,0,0)" opacity="1.0" /><circle cx="350.0" cy="530.0" r="8.333333" fill="rgb(0,0,0)" opacity="1.0" /><circle cx="370.0" cy="530.0" r="8.333333" fill="rgb(0,0,0)" opacity="1.0" /><circle cx="430.0" cy="530.0" r="8.333333" fill="rgb(0,0,0)" opacity="1.0" /><circle cx="450.0" cy="530.0" r="8.333333" fill="rgb(0,0,0)" opacity="1.0" /><circle cx="490.0" cy="530.0" r="8.333333" fill="rgb(0,0,0)" opacity="1.0" /><circle cx="530.0" cy="530.0" r="8.333333" fill="rgb(0,0,0)" opacity="1.0" /><circle cx="570.0" cy="530.0" r="8.333333" fill="rgb(0,0,0)" opacity="1.0" /><circle cx="270.0" cy="550.0" r="8.333333" fill="rgb(0,0,0)" opacity="1.0" /><circle cx="290.0" cy="550.0" r="8.333333" fill="rgb(0,0,0)" opacity="1.0" /><circle cx="310.0" cy="550.0" r="8.333333" fill="rgb(0,0,0)" opacity="1.0" /><circle cx="390.0" cy="550.0" r="8.333333" fill="rgb(0,0,0)" opacity="1.0" /><circle cx="430.0" cy="550.0" r="8.333333" fill="rgb(0,0,0)" opacity="1.0" /><circle cx="450.0" cy="550.0" r="8.333333" fill="rgb(0,0,0)" opacity="1.0" /><circle cx="470.0" cy="550.0" r="8.333333" fill="rgb(0,0,0)" opacity="1.0" /><circle cx="490.0" cy="550.0" r="8.333333" fill="rgb(0,0,0)" opacity="1.0" /><circle cx="510.0" cy="550.0" r="8.333333" fill="rgb(0,0,0)" opacity="1.0" /><circle cx="550.0" cy="550.0" r="8.333333" fill="rgb(0,0,0)" opacity="1.0" /><circle cx="250.0" cy="570.0" r="8.333333" fill="rgb(0,0,0)" opacity="1.0" /><circle cx="370.0" cy="570.0" r="8.333333" fill="rgb(0,0,0)" opacity="1.0" /><circle cx="390.0" cy="570.0" r="8.333333" fill="rgb(0,0,0)" opacity="1.0" /><circle cx="430.0" cy="570.0" r="8.333333" fill="rgb(0,0,0)" opacity="1.0" /><circle cx="530.0" cy="570.0" r="8.333333" fill="rgb(0,0,0)" opacity="1.0" /><circle cx="550.0" cy="570.0" r="8.333333" fill="rgb(0,0,0)" opacity="1.0" /><circle cx="570.0" cy="570.0" r="8.333333" fill="rgb(0,0,0)" opacity="1.0" /><path d="M150.0,80.0 A70.0,70.0 0 1,0 150.0,220.0 A70.0,70.0 0 1,0 150.0,80.0 M150.0,100.0 A50.0,50.0 0 1,1 150.0,200.0 A50.0,50.0 0 1,1 150.0,100.0 Z" fill-rule="evenodd" fill="rgb(0,0,0)" opacity="1.0" shape-rendering="crispEdges" /><path d="M510.0,80.0 A70.0,70.0 0 1,0 510.0,220.0 A70.0,70.0 0 1,0 510.0,80.0 M510.0,100.0 A50.0,50.0 0 1,1 510.0,200.0 A50.0,50.0 0 1,1 510.0,100.0 Z" fill-rule="evenodd" fill="rgb(0,0,0)" opacity="1.0" shape-rendering="crispEdges" /><circle cx="150.0" cy="150.0" r="30.0" fill="rgb(0,0,0)" opacity="1.0" /><circle cx="510.0" cy="150.0" r="30.0" fill="rgb(0,0,0)" opacity="1.0" /><path d="M150.0,440.0 A70.0,70.0 0 1,0 150.0,580.0 A70.0,70.0 0 1,0 150.0,440.0 M150.0,460.0 A50.0,50.0 0 1,1 150.0,560.0 A50.0,50.0 0 1,1 150.0,460.0 Z" fill-rule="evenodd" fill="rgb(0,0,0)" opacity="1.0" shape-rendering="crispEdges" /><circle cx="150.0" cy="510.0" r="30.0" fill="rgb(0,0,0)" opacity="1.0" /></svg></g></svg>